<svg width="205" height="28" viewBox="0 0 205 28" fill="none" xmlns="http://www.w3.org/2000/svg">
<g clip-path="url(#clip0_1_1211)">
<g clip-path="url(#clip1_1_1211)">
<path d="M33.7227 12.3737C33.7227 6.86247 37.8874 3.10307 43.1284 3.10307C47.2159 3.10307 49.4986 5.25543 50.763 7.48501L47.4862 9.09687C46.7333 7.64427 45.1215 6.49087 43.1332 6.49087C40.0157 6.49087 37.651 8.9907 37.651 12.3785C37.651 15.7663 40.0157 18.2661 43.1332 18.2661C45.1215 18.2661 46.7333 17.1369 47.4862 15.6601L50.763 17.2479C49.4745 19.4774 47.2159 21.6539 43.1284 21.6539C37.8874 21.6539 33.7227 17.8897 33.7227 12.3833V12.3737Z" fill="black"/>
<path d="M52.9648 21.3209V3.39262H56.3768V21.3209H52.9648Z" fill="black"/>
<path d="M68.5275 21.3209V19.6801C67.6396 20.6742 66.0808 21.6443 63.9574 21.6443C61.1101 21.6443 59.7637 20.0855 59.7637 17.5567V8.33919H63.1756V16.2151C63.1756 18.0152 64.1167 18.6088 65.5693 18.6088C66.8867 18.6088 67.934 17.8849 68.5275 17.132V8.34401H71.9395V21.3257H68.5275V21.3209Z" fill="black"/>
<path d="M91.4274 21.3209V13.1217C91.4274 11.9104 90.8917 11.0514 89.4922 11.0514C88.2809 11.0514 87.2868 11.8573 86.8042 12.5571V21.3209H83.3633V13.1217C83.3633 11.9104 82.8276 11.0514 81.4281 11.0514C80.2457 11.0514 79.2516 11.8573 78.7401 12.5812V21.3161H75.3281V8.33437H78.7401V10.0283C79.2757 9.24647 80.9986 8.01103 82.9869 8.01103C84.9751 8.01103 86.1044 8.899 86.587 10.3757C87.3398 9.19338 89.0579 8.01103 91.051 8.01103C93.4446 8.01103 94.8683 9.27542 94.8683 11.9345V21.3161H91.4274V21.3209Z" fill="black"/>
<path d="M97.875 4.39159C97.875 3.26232 98.8161 2.35022 99.9164 2.35022C101.017 2.35022 101.958 3.26232 101.958 4.39159C101.958 5.52085 101.046 6.43295 99.9164 6.43295C98.7871 6.43295 97.875 5.52085 97.875 4.39159ZM98.2225 21.3209V8.33919H101.634V21.3209H98.2225Z" fill="black"/>
<path d="M105.693 18.0972V11.3264H103.541V8.34402H105.693V4.79697H109.134V8.34402H111.769V11.3264H109.134V17.1851C109.134 17.991 109.564 18.6088 110.317 18.6088C110.828 18.6088 111.311 18.4205 111.499 18.2323L112.223 20.8142C111.711 21.2727 110.799 21.6491 109.376 21.6491C106.982 21.6491 105.693 20.4137 105.693 18.102V18.0972Z" fill="black"/>
<path d="M125.228 21.625C124.06 21.625 122.984 21.3981 122.004 20.9397C121.024 20.4812 120.17 19.8828 119.442 19.1396L120.585 17.8463C121.193 18.4881 121.903 19.0045 122.704 19.3954C123.505 19.7863 124.359 19.9793 125.257 19.9793C126.405 19.9793 127.303 19.7139 127.945 19.1782C128.587 18.6474 128.91 17.9476 128.91 17.0838C128.91 16.4902 128.785 16.0124 128.529 15.6505C128.273 15.2885 127.935 14.9845 127.515 14.7384C127.091 14.4922 126.608 14.2509 126.068 14.0145L123.655 12.9479C123.148 12.7259 122.632 12.4412 122.106 12.0841C121.579 11.727 121.145 11.2782 120.798 10.7377C120.45 10.1972 120.276 9.51189 120.276 8.68183C120.276 7.85177 120.498 7.1134 120.938 6.4619C121.377 5.8104 121.985 5.29403 122.767 4.91278C123.544 4.53153 124.427 4.34332 125.406 4.34332C126.386 4.34332 127.322 4.53636 128.162 4.92726C129.002 5.31816 129.697 5.80558 130.256 6.39917L129.243 7.6153C128.751 7.10858 128.191 6.70802 127.554 6.4233C126.922 6.13374 126.203 5.99379 125.411 5.99379C124.446 5.99379 123.664 6.22543 123.066 6.69355C122.463 7.15684 122.163 7.78903 122.163 8.58531C122.163 9.14512 122.308 9.59875 122.593 9.95587C122.882 10.313 123.24 10.6025 123.674 10.8294C124.103 11.0562 124.533 11.2637 124.958 11.4519L127.371 12.5184C128.032 12.7887 128.616 13.112 129.122 13.4836C129.629 13.8552 130.039 14.3233 130.353 14.8783C130.667 15.4381 130.821 16.1331 130.821 16.9583C130.821 17.7835 130.599 18.6087 130.15 19.3182C129.702 20.0276 129.06 20.5922 128.22 21.0072C127.38 21.4223 126.386 21.6298 125.238 21.6298L125.228 21.625Z" fill="black"/>
<path d="M138.833 21.625C137.766 21.625 136.791 21.3692 135.903 20.8528C135.015 20.3364 134.311 19.6029 133.785 18.6425C133.259 17.687 132.998 16.5336 132.998 15.1775C132.998 13.8214 133.259 12.6922 133.785 11.727C134.311 10.7618 134.991 10.0186 135.826 9.49259C136.666 8.96656 137.554 8.70596 138.504 8.70596C139.518 8.70596 140.391 8.94243 141.12 9.41537C141.849 9.88831 142.404 10.5543 142.78 11.4085C143.161 12.2627 143.35 13.2809 143.35 14.4681C143.35 14.6708 143.35 14.8687 143.335 15.0665C143.326 15.2596 143.306 15.4333 143.272 15.5877H134.441L134.417 14.2413H141.699C141.699 12.9238 141.419 11.92 140.859 11.2347C140.3 10.5495 139.523 10.2068 138.524 10.2068C137.916 10.2068 137.322 10.3854 136.748 10.7377C136.173 11.0948 135.701 11.6353 135.324 12.364C134.953 13.0927 134.764 14.029 134.764 15.1823C134.764 16.3357 134.957 17.1948 135.348 17.9235C135.739 18.6522 136.256 19.2023 136.907 19.5739C137.559 19.9455 138.273 20.1337 139.05 20.1337C139.677 20.1337 140.237 20.0421 140.739 19.8538C141.236 19.6656 141.714 19.4292 142.172 19.1444L142.857 20.3606C142.331 20.6984 141.743 20.9928 141.096 21.2485C140.444 21.5043 139.687 21.6298 138.823 21.6298L138.833 21.625Z" fill="black"/>
<path d="M151.22 21.625C150.139 21.625 149.164 21.3692 148.301 20.8625C147.437 20.3557 146.751 19.6222 146.245 18.6667C145.738 17.7111 145.482 16.5481 145.482 15.1775C145.482 13.807 145.757 12.6391 146.307 11.6739C146.858 10.7087 147.572 9.97518 148.45 9.46364C149.328 8.95692 150.294 8.70114 151.346 8.70114C152.156 8.70114 152.851 8.85074 153.426 9.14513C154 9.43951 154.502 9.78215 154.922 10.173L153.957 11.3892C153.599 11.0514 153.218 10.7763 152.803 10.5639C152.388 10.3516 151.93 10.2454 151.418 10.2454C150.641 10.2454 149.951 10.453 149.348 10.868C148.749 11.283 148.272 11.8621 147.929 12.6053C147.582 13.3485 147.408 14.2027 147.408 15.1679C147.408 16.1331 147.572 17.0066 147.905 17.7449C148.233 18.4785 148.696 19.0527 149.29 19.4581C149.883 19.8635 150.574 20.0662 151.37 20.0662C151.963 20.0662 152.514 19.9407 153.02 19.6849C153.527 19.4292 153.976 19.1348 154.367 18.797L155.178 20.0421C154.637 20.5343 154.029 20.9155 153.349 21.1955C152.673 21.4754 151.959 21.6153 151.215 21.6153L151.22 21.625Z" fill="black"/>
<path d="M161.524 21.625C160.254 21.625 159.313 21.2196 158.705 20.4088C158.097 19.5981 157.793 18.4061 157.793 16.828V9.00999H159.622V16.5963C159.622 17.7787 159.815 18.6474 160.206 19.1975C160.597 19.7477 161.22 20.0227 162.083 20.0227C162.725 20.0227 163.309 19.849 163.835 19.5015C164.361 19.1541 164.926 18.5991 165.534 17.8414V9.00999H167.387V21.3209H165.838L165.684 19.3664H165.606C165.032 20.0421 164.424 20.5874 163.777 21.0024C163.135 21.4174 162.383 21.625 161.519 21.625H161.524Z" fill="black"/>
<path d="M171.672 21.3209V9.01H173.197L173.351 11.2685H173.429C173.853 10.4916 174.365 9.86901 174.963 9.4009C175.562 8.93761 176.218 8.70114 176.932 8.70114C177.188 8.70114 177.415 8.72044 177.617 8.76388C177.82 8.80731 178.013 8.87005 178.201 8.95209L177.844 10.5784C177.642 10.5109 177.458 10.4626 177.299 10.424C177.14 10.3902 176.932 10.3757 176.676 10.3757C176.15 10.3757 175.6 10.5929 175.026 11.0224C174.452 11.4519 173.945 12.2096 173.501 13.2954V21.3161H171.672V21.3209Z" fill="black"/>
<path d="M181.242 6.37505C180.885 6.37505 180.586 6.25923 180.339 6.01793C180.093 5.78146 179.973 5.46777 179.973 5.07688C179.973 4.68598 180.093 4.40607 180.339 4.17443C180.586 3.94761 180.885 3.83179 181.242 3.83179C181.599 3.83179 181.918 3.94761 182.154 4.17443C182.39 4.40125 182.511 4.70528 182.511 5.07688C182.511 5.44847 182.39 5.78146 182.154 6.01793C181.918 6.2544 181.613 6.37505 181.242 6.37505ZM180.301 21.3209V9.01H182.13V21.3209H180.301Z" fill="black"/>
<path d="M190.175 21.625C188.906 21.625 188.023 21.2534 187.521 20.5102C187.024 19.767 186.773 18.8018 186.773 17.6146V10.535H184.92V9.1403L186.85 9.01483L187.077 5.53534H188.626V9.01483H192V10.5398H188.626V17.6725C188.626 18.435 188.766 19.0286 189.046 19.463C189.326 19.8925 189.838 20.1096 190.581 20.1096C190.803 20.1096 191.044 20.0758 191.305 20.0083C191.565 19.9407 191.802 19.8635 192.004 19.7815L192.386 21.1762C192.048 21.2968 191.681 21.3981 191.295 21.4947C190.904 21.5864 190.532 21.6346 190.18 21.6346L190.175 21.625Z" fill="black"/>
<path d="M194.87 26.7018C194.6 26.7018 194.344 26.6777 194.108 26.6246C193.871 26.5764 193.659 26.5136 193.471 26.446L193.828 24.95C193.963 24.9983 194.122 25.0465 194.296 25.09C194.475 25.1334 194.639 25.1527 194.793 25.1527C195.503 25.1527 196.096 24.8873 196.569 24.3516C197.042 23.8207 197.409 23.1451 197.66 22.3344L197.964 21.3933L192.988 9.00999H194.89L197.529 16.0655C197.732 16.5915 197.94 17.1513 198.152 17.7546C198.364 18.353 198.562 18.9417 198.75 19.516H198.852C199.04 18.9562 199.223 18.3771 199.412 17.7787C199.595 17.1803 199.769 16.606 199.918 16.0655L202.23 9.00999H204.03L199.359 22.4598C199.069 23.2368 198.731 23.9462 198.345 24.5929C197.954 25.2347 197.476 25.7463 196.912 26.1275C196.347 26.5088 195.662 26.697 194.87 26.697V26.7018Z" fill="black"/>
<path d="M0 20.6356L6.78525 16.717L12.7501 20.1627V28L0 20.6356Z" fill="#15649D"/>
<path d="M25.5002 20.6356L18.7149 16.717L12.7501 20.1627V28L25.5002 20.6356Z" fill="#19469D"/>
<path d="M12.7501 6.38952V0H25.5002V5.91658L18.7149 9.8304L12.7501 6.38952Z" fill="#C9C9C9"/>
<path d="M12.7501 6.38952V0H0V5.91658L6.78525 9.8304L12.7501 6.38952Z" fill="#AF2026"/>
<path d="M0 20.6356L6.78525 16.717V9.8304L0 5.91658V20.6356Z" fill="#EE424C"/>
<path d="M25.5002 20.6356L18.7149 16.717V9.8304L25.5002 5.91658V20.6356Z" fill="#3093D0"/>
<path d="M12.7506 13.2761L5.51172 17.4554L12.7506 21.6346V13.2761Z" fill="#3093D0"/>
<path d="M12.7501 13.2761V21.6346L19.989 17.4554L12.7501 13.2761Z" fill="#C9C9C9"/>
<path d="M12.7501 13.2761L19.989 17.4554V9.09686L12.7501 13.2761Z" fill="#AF2026"/>
<path d="M12.7501 13.2761L19.989 9.09687L12.7501 4.91762V13.2761Z" fill="#EE424C"/>
<path d="M12.7506 13.2761V4.91762L5.51172 9.09687L12.7506 13.2761Z" fill="#15649D"/>
<path d="M12.7506 13.2761L5.51172 9.09686V17.4554L12.7506 13.2761Z" fill="#19469D"/>
</g>
</g>
<defs>
<clipPath id="clip0_1_1211">
<rect width="205" height="28" fill="white"/>
</clipPath>
<clipPath id="clip1_1_1211">
<rect width="204.03" height="28" fill="white"/>
</clipPath>
</defs>
</svg>
